<?xml version="1.0" encoding="UTF-8"?>
<svg id="Layer_1" data-name="Layer 1" xmlns="http://www.w3.org/2000/svg" version="1.1" viewBox="0 0 943.1 160.3">
  <defs>
    <style>
      .cls-1 {
        fill: #133d66;
      }

      .cls-1, .cls-2 {
        stroke-width: 0px;
      }

      .cls-2 {
        fill: #00bfe5;
      }
    </style>
  </defs>
  <path class="cls-1" d="M157.6,44.3l-37.8,71.1c-1,1.8-3.5,1.8-4.5,0l-3.1-5.7-9.3-17.6-23.6-44.3c0,0,0,0,0-.1l-1.8-3.4H29.6l45.4,85.3h0c0,0,11.9,22.4,11.9,22.4h18.6l-1.5-2.7h0l-16.1-30.3h0l-25.4-47.6c-4.8-.7-8.4-4.8-8.4-9.7,0-7.2,7.8-12.6,15.4-8.2,1.1.7,2,1.6,2.7,2.7,2.3,4.2,1.8,8.7-.9,11.9l22.1,41.5,9.3,17.6,5.3,9.9,7.1,13.4c1,1.8,3.5,1.8,4.5,0l42.5-79.9c0,0,14.3-26.3,14.3-26.4"/>
  <polygon class="cls-1" points="179.2 8.3 146.8 8.3 62.1 8.3 29.7 8.3 13.5 8.3 26.7 33.4 86.3 33.4 86.3 33.5 126.6 33.5 102 79.7 115.5 104.1 153.2 33.5 182.2 33.5 195.4 8.3 179.2 8.3"/>
  <g>
    <path class="cls-1" d="M371.9,8.4h67.7v18.1h-45.9v15.8h38.7v17h-38.7v18.9h45.9v18.6h-67.7V8.4Z"/>
    <path class="cls-1" d="M477.6,8.4h21.9v69.9h39.7v18.6h-61.6V8.4Z"/>
    <path class="cls-1" d="M684.5,8.4h42.3c4.4,0,8.4.5,12.2,1.6,3.8,1.1,7.1,2.7,9.8,4.9,2.7,2.1,4.9,4.8,6.5,8,1.6,3.2,2.3,6.8,2.3,10.9s-1.3,9.6-3.8,13.3c-2.5,3.6-6.4,6.4-11.5,8.2v.4c3.8,1.3,6.8,3.2,8.9,5.7,2,2.5,3.4,6,4,10.4.5,2.9.8,5.7.9,8.5.1,2.7.2,5.3.4,7.4.2,2.2.4,4,.7,5.4s.9,2.3,1.6,2.5v1.1h-21.3c-.5-.3-1-1.2-1.3-2.5-.3-1.3-.5-3-.7-4.9-.2-2-.4-4-.5-6.3-.2-2.3-.4-4.5-.7-6.7-.5-4.1-2-7.3-4.3-9.4-2.3-2.1-5.7-3.2-10.4-3.2h-13.3v33.1h-21.9V8.4h0ZM722.8,47.4c4.4,0,7.6-1,9.8-2.9s3.3-4.5,3.3-7.9-1-5.9-3.2-7.9c-2.1-2.1-5.3-3.1-9.5-3.1h-16.9v21.7h16.4Z"/>
    <path class="cls-1" d="M797,8.4h21.9v88.4h-21.9V8.4Z"/>
    <path class="cls-1" d="M894.7,96.8c-5.6,0-10.8-.6-15.4-1.8-4.6-1.2-8.6-3.1-11.9-5.4-3.3-2.4-5.9-5.4-7.7-9-1.8-3.6-2.8-7.8-2.9-12.4h21.1c.5,4.3,2.1,7.4,4.9,9.3,2.7,1.9,6.7,2.9,11.7,2.9s3.4-.2,5.1-.5c1.6-.3,3.1-.9,4.3-1.5,1.3-.7,2.3-1.6,3.1-2.8.8-1.2,1.2-2.5,1.2-4.1s-.4-3.1-1.2-4.2c-.9-1.1-2-2.1-3.6-2.9-1.6-.8-3.5-1.5-5.8-2.1-2.3-.6-4.9-1.2-7.8-2-3.7-.9-7.4-1.8-11-3-3.6-1.1-6.8-2.6-9.7-4.5-2.9-1.9-5.2-4.3-7-7.3-1.8-2.9-2.7-6.6-2.7-11.1s.9-8.4,2.6-11.7c1.7-3.3,4.1-6,7.1-8.1,3-2.1,6.6-3.7,10.7-4.8,4.1-1,8.6-1.5,13.3-1.5s8.9.5,12.9,1.6c4,1,7.5,2.7,10.4,4.8,3,2.1,5.3,4.8,7.1,8.1,1.8,3.3,2.8,7.1,3.1,11.6h-20.5c-.4-3.3-1.8-5.9-4.2-7.6-2.4-1.7-5.6-2.6-9.5-2.6s-6.7.7-8.9,2.2c-2.2,1.5-3.3,3.4-3.3,5.7s.4,2.7,1.2,3.7c.9,1,2,1.8,3.6,2.6s3.6,1.3,6,2c2.4.6,5.2,1.2,8.4,2,4,1,7.8,2,11.4,3.2,3.6,1.2,6.8,2.7,9.5,4.8,2.7,2,5,4.5,6.7,7.5,1.6,3,2.5,6.8,2.5,11.3s-.9,8.4-2.7,11.8c-1.8,3.4-4.2,6.4-7.4,8.7-3.1,2.3-6.8,4.1-11.1,5.3-4.3,1.3-8.9,1.9-13.8,1.9Z"/>
    <g>
      <path class="cls-1" d="M311.7,8.4h22.1l-29.1,88.4h-19l26-88.4Z"/>
      <polygon class="cls-1" points="268.3 8.4 245.6 8.4 274.8 96.7 284.5 63.5 268.3 8.4"/>
    </g>
    <g>
      <path class="cls-1" d="M621.8,26.1v70.7h-21.9V32"/>
      <path class="cls-1" d="M560,33.9V8.3h101.8l-101.8,25.7Z"/>
    </g>
  </g>
  <g>
    <path class="cls-2" d="M275.1,150v-20.5h4.3v20.5h-4.3Z"/>
    <path class="cls-2" d="M305.7,150h-5.6l-8.9-15.5h-.1c.2,2.7.2,4.7.2,5.9v9.7h-3.9v-20.5h5.5l8.9,15.4h.1c-.1-2.7-.2-4.6-.2-5.7v-9.7h3.9v20.5h0Z"/>
    <path class="cls-2" d="M332,150h-5.6l-8.9-15.5h-.1c.2,2.7.2,4.7.2,5.9v9.7h-3.9v-20.5h5.5l8.9,15.4h.1c-.1-2.7-.2-4.6-.2-5.7v-9.7h3.9v20.5h0Z"/>
    <path class="cls-2" d="M358.6,139.7c0,3.4-.9,6-2.5,7.8-1.7,1.8-4.1,2.7-7.3,2.7s-5.6-.9-7.3-2.7c-1.7-1.8-2.5-4.5-2.5-7.9s.9-6,2.5-7.8c1.7-1.8,4.1-2.7,7.3-2.7s5.6.9,7.2,2.7c1.8,1.8,2.6,4.4,2.6,7.8ZM343.6,139.7c0,2.3.4,4,1.3,5.2s2.2,1.7,3.9,1.7c3.5,0,5.2-2.3,5.2-6.9s-1.7-7-5.2-7-3.1.6-3.9,1.8c-.9,1.2-1.3,2.9-1.3,5.2Z"/>
    <path class="cls-2" d="M377.5,129.5h4.4l-7,20.5h-4.8l-7-20.5h4.4l3.8,12.2c.2.7.4,1.6.7,2.5s.4,1.6.4,2c.1-.9.4-2.4,1-4.5l3.9-12.2Z"/>
    <path class="cls-2" d="M399.9,150l-1.5-4.9h-7.5l-1.5,4.9h-4.7l7.3-20.6h5.3l7.3,20.6h-4.8ZM397.3,141.5c-1.4-4.4-2.1-6.9-2.3-7.5s-.3-1-.4-1.4c-.3,1.2-1.2,4.2-2.6,8.9h5.3Z"/>
    <path class="cls-2" d="M417.9,150h-4.3v-16.9h-5.6v-3.6h15.5v3.6h-5.6v16.9h0Z"/>
    <path class="cls-2" d="M441.4,150h-11.8v-20.5h11.8v3.5h-7.5v4.5h7v3.5h-7v5.3h7.5v3.6Z"/>
    <path class="cls-2" d="M462.6,127.1h3.1v24.9h-3.1v-24.9Z"/>
    <path class="cls-2" d="M707.3,127.1h3.1v24.9h-3.1v-24.9Z"/>
    <path class="cls-2" d="M500.4,150l-1.5-4.9h-7.5l-1.5,4.9h-4.7l7.3-20.6h5.3l7.3,20.6h-4.8ZM497.9,141.5c-1.4-4.4-2.1-6.9-2.3-7.5s-.3-1-.4-1.4c-.3,1.2-1.2,4.2-2.6,8.9h5.3Z"/>
    <path class="cls-2" d="M519.3,132.8c-1.6,0-2.9.6-3.8,1.8-.9,1.2-1.3,2.9-1.3,5.1,0,4.6,1.7,6.8,5.1,6.8s3.2-.4,5.3-1.1v3.7c-1.7.7-3.5,1-5.6,1-3,0-5.3-.9-6.8-2.7-1.6-1.8-2.4-4.4-2.4-7.8s.4-4,1.2-5.6c.8-1.6,1.9-2.8,3.4-3.7s3.2-1.3,5.1-1.3,4,.5,6,1.5l-1.4,3.5c-.8-.4-1.5-.7-2.3-1-.8-.2-1.6-.4-2.3-.4Z"/>
    <path class="cls-2" d="M540.5,132.8c-1.6,0-2.9.6-3.8,1.8-.9,1.2-1.3,2.9-1.3,5.1,0,4.6,1.7,6.8,5.1,6.8s3.2-.4,5.3-1.1v3.7c-1.7.7-3.5,1-5.6,1-3,0-5.3-.9-6.8-2.7-1.6-1.8-2.4-4.4-2.4-7.8s.4-4,1.2-5.6c.8-1.6,1.9-2.8,3.4-3.7s3.2-1.3,5.1-1.3,4,.5,6,1.5l-1.4,3.5c-.8-.4-1.5-.7-2.3-1-.8-.2-1.6-.4-2.3-.4Z"/>
    <path class="cls-2" d="M564.8,150h-11.8v-20.5h11.8v3.5h-7.5v4.5h7v3.5h-7v5.3h7.5v3.6Z"/>
    <path class="cls-2" d="M572,150v-20.5h4.3v16.9h8.3v3.6h-12.6Z"/>
    <path class="cls-2" d="M602.9,150h-11.8v-20.5h11.8v3.5h-7.5v4.5h7v3.5h-7v5.3h7.5v3.6Z"/>
    <path class="cls-2" d="M614.4,142.2v7.9h-4.3v-20.5h6c2.8,0,4.8.5,6.2,1.5,1.3,1,2,2.6,2,4.6s-.3,2.3-1,3.2c-.7.9-1.6,1.6-2.8,2.2,3.1,4.6,5.1,7.6,6,8.9h-4.8l-4.9-7.9h-2.4ZM614.4,138.6h1.4c1.4,0,2.4-.2,3.1-.7.7-.5,1-1.2,1-2.1s-.3-1.6-1-2.1-1.7-.6-3.1-.6h-1.3v5.5h0Z"/>
    <path class="cls-2" d="M644.5,150l-1.5-4.9h-7.5l-1.5,4.9h-4.7l7.3-20.6h5.3l7.3,20.6h-4.8ZM641.9,141.5c-1.4-4.4-2.1-6.9-2.3-7.5-.2-.5-.3-1-.4-1.4-.3,1.2-1.2,4.2-2.6,8.9h5.3Z"/>
    <path class="cls-2" d="M662.6,150h-4.3v-16.9h-5.6v-3.6h15.5v3.6h-5.6v16.9h0Z"/>
    <path class="cls-2" d="M686,150h-11.8v-20.5h11.8v3.5h-7.5v4.5h7v3.5h-7v5.3h7.5v3.6Z"/>
    <path class="cls-2" d="M740.4,150h-4.3v-16.9h-5.6v-3.6h15.5v3.6h-5.6v16.9h0Z"/>
    <path class="cls-2" d="M756.4,142.2v7.9h-4.3v-20.5h6c2.8,0,4.8.5,6.2,1.5s2,2.6,2,4.6-.3,2.3-1,3.2c-.7.9-1.6,1.6-2.8,2.2,3.1,4.6,5.1,7.6,6,8.9h-4.8l-4.9-7.9h-2.4ZM756.4,138.6h1.4c1.4,0,2.4-.2,3.1-.7.7-.5,1-1.2,1-2.1s-.3-1.6-1-2.1-1.7-.6-3.1-.6h-1.3v5.5h0Z"/>
    <path class="cls-2" d="M786.4,150l-1.5-4.9h-7.5l-1.5,4.9h-4.7l7.3-20.6h5.3l7.3,20.6h-4.8ZM783.9,141.5c-1.4-4.4-2.1-6.9-2.3-7.5-.2-.5-.3-1-.4-1.4-.3,1.2-1.2,4.2-2.6,8.9h5.3Z"/>
    <path class="cls-2" d="M814.8,150h-5.6l-8.9-15.5h-.1c.2,2.7.2,4.7.2,5.9v9.7h-3.9v-20.5h5.5l8.9,15.4h.1c-.1-2.7-.2-4.6-.2-5.7v-9.7h3.9v20.5Z"/>
    <path class="cls-2" d="M834.9,144.3c0,1.8-.7,3.3-2,4.4-1.3,1-3.2,1.6-5.6,1.6s-4.2-.4-5.8-1.2v-4c1.4.6,2.6,1,3.5,1.3,1,.2,1.8.4,2.6.4s1.7-.2,2.2-.5c.5-.4.8-.9.8-1.6s-.1-.7-.4-1.1c-.2-.3-.5-.6-1-.9s-1.3-.7-2.7-1.4c-1.3-.6-2.2-1.2-2.8-1.7s-1.1-1.2-1.5-1.9c-.4-.7-.5-1.6-.5-2.5,0-1.8.6-3.2,1.8-4.3s2.9-1.6,5.1-1.6,2.1.1,3.1.4c1,.2,2,.6,3.1,1l-1.4,3.4c-1.1-.4-2-.7-2.7-.9-.7-.2-1.4-.2-2.1-.2s-1.5.2-1.9.5c-.4.4-.7.9-.7,1.5s0,.7.2,1c.2.3.5.5.9.9.4.2,1.3.7,2.7,1.5,1.9.9,3.2,1.8,4,2.7.7,1,1,2.1,1,3.5Z"/>
    <path class="cls-2" d="M845.8,150h-4.3v-20.5h11.8v3.5h-7.5v5.3h7v3.5h-7v8.1h0Z"/>
    <path class="cls-2" d="M878.8,139.7c0,3.4-.9,6-2.5,7.8-1.7,1.8-4.1,2.7-7.3,2.7s-5.6-.9-7.3-2.7-2.5-4.5-2.5-7.9.9-6,2.5-7.8c1.7-1.8,4.1-2.7,7.3-2.7s5.6.9,7.2,2.7c1.7,1.8,2.6,4.4,2.6,7.8ZM863.8,139.7c0,2.3.4,4,1.3,5.2s2.2,1.7,3.9,1.7c3.5,0,5.2-2.3,5.2-6.9s-1.7-7-5.2-7-3.1.6-3.9,1.8c-.9,1.2-1.3,2.9-1.3,5.2Z"/>
    <path class="cls-2" d="M890.3,142.2v7.9h-4.3v-20.5h6c2.8,0,4.8.5,6.2,1.5s2,2.6,2,4.6-.3,2.3-1,3.2c-.7.9-1.6,1.6-2.8,2.2,3.1,4.6,5.1,7.6,6,8.9h-4.8l-4.9-7.9h-2.4ZM890.3,138.6h1.4c1.4,0,2.4-.2,3.1-.7s1-1.2,1-2.1-.3-1.6-1-2.1-1.7-.6-3.1-.6h-1.3v5.5h0Z"/>
    <path class="cls-2" d="M916.5,150l-4.9-16.1h-.1c.2,3.3.2,5.4.2,6.5v9.5h-3.9v-20.5h5.9l4.9,15.7h0l5.1-15.7h5.9v20.5h-4v-11.3c0-.6,0-2.2.2-4.8h-.1l-5.3,16.1h-3.9Z"/>
  </g>
</svg>