<?xml version="1.0" encoding="UTF-8"?>
<svg id="Layer_1" data-name="Layer 1" xmlns="http://www.w3.org/2000/svg" version="1.1" viewBox="0 0 500 500">
  <defs>
    <style>
      .cls-1 {
        fill: #133d66;
        stroke-width: 0px;
      }
    </style>
  </defs>
  <path class="cls-1" d="M385.2,158.6l-96.3,181c-2.5,4.5-9,4.5-11.4,0l-7.8-14.5-23.8-44.8-60-112.7c0-.2-.2-.2-.2-.3l-4.5-8.6H59.4l115.7,217.2v.2l30.3,56.8h47.4l-3.7-6.8h0l-41.1-77.1h0l-64.5-121.1c-12.1-1.7-21.3-12.1-21.3-24.6,0-18.3,19.9-32.2,39.2-20.8,2.8,1.7,5.1,4,6.8,6.8,5.9,10.7,4.7,22.2-2.3,30.2l56.3,105.6,23.8,44.8,13.4,25.2,18,34.1c2.5,4.5,9,4.5,11.4,0l108.1-203.4c0-.2,36.4-67,36.4-67.2"/>
  <polygon class="cls-1" points="440.4 67.1 357.7 67.1 142.3 67.1 59.6 67.1 18.4 67.1 52 131 203.7 131 203.7 131.1 306.4 131.1 243.7 248.8 278.2 311 374.2 131.1 448 131.1 481.6 67.1 440.4 67.1"/>
</svg>